<?xml version="1.0" standalone="no"?>
<!DOCTYPE svg PUBLIC "-//W3C//DTD SVG 20010904//EN"
 "http://www.w3.org/TR/2001/REC-SVG-20010904/DTD/svg10.dtd">
<svg version="1.0" xmlns="http://www.w3.org/2000/svg"
 width="300.000000pt" height="300.000000pt" viewBox="0 0 300.000000 300.000000"
 preserveAspectRatio="xMidYMid meet">
<metadata>
Created by potrace 1.11, written by Peter Selinger 2001-2013
</metadata>
<g transform="translate(0.000000,300.000000) scale(0.100000,-0.100000)"
fill="#000000" stroke="none">
<path d="M1215 2940 c-136 -29 -183 -44 -310 -97 -231 -98 -470 -299 -618
-519 -124 -184 -181 -322 -227 -545 -41 -197 -41 -362 0 -562 17 -78 39 -167
51 -197 22 -58 74 -175 89 -200 5 -8 18 -32 30 -53 123 -227 382 -471 620
-583 150 -71 208 -91 371 -124 138 -29 162 -31 307 -27 259 7 453 59 687 184
77 41 229 156 312 236 108 104 238 282 283 387 6 14 22 48 35 75 46 99 65 159
95 306 29 139 30 160 26 312 -6 225 -49 407 -143 605 -103 217 -294 437 -499
575 -173 117 -295 169 -504 219 -107 26 -150 30 -295 34 -158 3 -180 1 -310
-26z m768 -642 c12 -9 58 -154 137 -433 l120 -420 0 -292 c0 -160 -3 -298 -6
-307 -6 -14 -80 -16 -735 -16 l-729 0 -5 23 c-4 13 -5 158 -3 322 l4 300 117
405 c76 263 123 409 134 418 13 9 126 12 483 12 357 0 470 -3 483 -12z"/>
<path d="M1132 2048 c-5 -7 -35 -141 -65 -298 -40 -205 -53 -288 -45 -297 7
-9 42 -13 113 -13 77 0 106 -4 115 -14 6 -8 24 -61 38 -118 l27 -103 185 0
185 0 27 103 c14 57 32 110 38 118 9 10 38 14 115 14 71 0 106 4 113 13 8 9
-5 92 -45 297 -30 157 -60 291 -65 298 -8 9 -94 12 -368 12 -274 0 -360 -3
-368 -12z"/>
</g>
</svg>
